<?xml version="1.0" standalone="no"?>
<!DOCTYPE svg PUBLIC "-//W3C//DTD SVG 20010904//EN"
 "http://www.w3.org/TR/2001/REC-SVG-20010904/DTD/svg10.dtd">
<svg version="1.0" xmlns="http://www.w3.org/2000/svg"
 width="225.000000pt" height="225.000000pt" viewBox="0 0 225.000000 225.000000"
 preserveAspectRatio="xMidYMid meet">
<metadata>
Created by potrace 1.16, written by Peter Selinger 2001-2019
</metadata>
<g transform="translate(0.000000,225.000000) scale(0.100000,-0.100000)"
fill="#000000" stroke="none">
<path d="M366 1964 c-11 -28 -6 -150 6 -162 7 -7 38 -12 70 -12 49 0 63 -4 83
-24 25 -25 38 -93 32 -170 -3 -37 -6 -39 -73 -71 -85 -39 -184 -101 -184 -115
0 -14 81 -53 178 -85 48 -17 82 -34 82 -42 0 -7 -6 -13 -13 -13 -21 0 -146 45
-221 79 l-69 32 -44 -43 c-105 -103 -146 -242 -108 -373 19 -65 79 -159 128
-202 l36 -32 59 30 c62 31 196 79 219 79 10 0 11 -5 5 -16 -5 -8 -44 -28 -88
-43 -105 -37 -155 -63 -151 -75 6 -19 139 -95 213 -124 69 -26 72 -28 104 -90
18 -34 60 -91 94 -126 180 -185 452 -235 682 -125 90 43 198 150 242 240 l32
66 75 28 c80 29 247 123 240 135 -3 4 -44 24 -92 45 -71 31 -177 61 -308 90
-17 4 -24 -6 -44 -61 -31 -87 -109 -202 -168 -249 -74 -59 -74 -58 -3 -50 36
3 79 9 95 11 30 5 29 5 -18 -40 -62 -58 -125 -79 -220 -74 -43 2 -88 12 -112
23 -37 18 -121 92 -113 100 2 2 22 -2 43 -10 80 -28 75 -40 75 191 l0 206 -85
-7 c-69 -5 -85 -4 -83 7 5 20 27 27 101 27 l67 1 0 135 0 135 -62 0 c-78 0
-108 8 -108 28 0 13 13 14 85 9 l85 -6 0 213 0 214 -42 -10 c-24 -5 -60 -18
-81 -28 -21 -11 -40 -20 -42 -20 -3 0 -3 31 -1 69 6 108 27 131 118 131 30 0
59 5 66 12 12 12 17 134 6 162 -5 14 -50 16 -394 16 -344 0 -389 -2 -394 -16z
m742 -76 l-3 -43 -121 -5 c-114 -5 -123 -7 -158 -34 -21 -15 -42 -39 -48 -52
-15 -31 -24 -30 -43 5 -31 61 -68 75 -200 81 l-120 5 -3 43 -3 42 351 0 351 0
-3 -42z m-454 -78 c23 -11 52 -36 66 -57 l25 -36 5 -561 5 -561 24 -55 c37
-84 77 -136 139 -186 89 -70 147 -88 277 -88 103 -1 114 1 178 31 81 39 170
120 205 188 14 27 27 45 29 38 13 -37 -111 -177 -201 -228 -205 -114 -464 -76
-636 94 -71 70 -108 129 -143 226 -21 58 -22 77 -27 602 l-5 542 -34 35 -35
36 44 0 c24 0 62 -9 84 -20z m308 -11 c-17 -17 -34 -45 -37 -62 -3 -18 -5
-288 -3 -602 l3 -570 23 -48 c31 -61 98 -128 158 -157 67 -31 178 -38 252 -16
74 23 140 71 180 132 18 26 32 40 32 32 0 -9 -18 -39 -40 -66 -197 -250 -582
-209 -723 78 l-32 65 -3 566 -3 565 23 35 c30 44 99 79 157 79 l45 0 -32 -31z"/>
<path d="M1354 1967 c-3 -8 -4 -49 -2 -93 l3 -79 71 -5 c39 -3 78 -11 87 -19
35 -28 51 -160 19 -153 -42 8 -198 29 -200 27 -2 -2 30 -36 70 -77 74 -73 130
-163 158 -253 7 -22 15 -43 19 -47 16 -18 316 74 410 126 l24 13 -44 32 c-43
31 -146 85 -221 115 l-38 15 0 86 c0 80 2 88 26 110 21 20 39 25 92 27 l67 3
0 90 0 90 -268 3 c-218 2 -268 0 -273 -11z m496 -82 l0 -45 -66 0 c-50 0 -75
-5 -100 -21 -19 -11 -34 -24 -34 -27 0 -4 -4 -13 -9 -21 -7 -10 -17 -4 -44 25
-35 38 -37 39 -116 42 l-81 4 0 44 0 44 225 0 225 0 0 -45z"/>
<path d="M1170 1433 l0 -214 73 6 c182 15 297 28 297 34 0 26 -48 140 -79 188
-71 109 -150 170 -248 191 l-43 10 0 -215z"/>
<path d="M1963 1345 c-79 -37 -197 -77 -302 -100 l-68 -16 1 -132 c1 -73 -1
-150 -4 -172 l-5 -40 85 -21 c112 -27 231 -68 305 -104 l60 -29 51 53 c29 29
66 84 85 122 30 61 33 78 34 154 0 75 -4 93 -32 152 -27 59 -114 168 -132 168
-3 0 -38 -16 -78 -35z"/>
<path d="M1455 1210 c-27 -4 -103 -11 -167 -15 l-118 -8 0 -133 0 -134 58 0
c31 0 115 -7 186 -15 71 -8 130 -14 132 -12 13 12 23 185 14 243 -5 38 -10 72
-10 77 0 8 -24 7 -95 -3z"/>
<path d="M1170 684 l0 -206 38 7 c128 23 257 155 317 324 7 22 11 42 7 45 -9
5 -167 23 -279 31 l-83 6 0 -207z"/>
</g>
</svg>
