<?xml version="1.0" encoding="UTF-8" standalone="no"?>
<!-- Created with Inkscape (http://www.inkscape.org/) -->

<svg
   width="100"
   height="90"
   viewBox="0 0 271 291"
   version="1.1"
   id="svg1176"
   inkscape:version="1.1.2 (0a00cf5339, 2022-02-04, custom)"
   sodipodi:docname="RUDN logo.svg"
   xmlns:inkscape="http://www.inkscape.org/namespaces/inkscape"
   xmlns:sodipodi="http://sodipodi.sourceforge.net/DTD/sodipodi-0.dtd"
   xmlns="http://www.w3.org/2000/svg"
   xmlns:svg="http://www.w3.org/2000/svg">
  <sodipodi:namedview
     id="namedview1178"
     pagecolor="#505050"
     bordercolor="#ffffff"
     borderopacity="1"
     inkscape:pageshadow="0"
     inkscape:pageopacity="0"
     inkscape:pagecheckerboard="1"
     inkscape:document-units="mm"
     showgrid="false"
     inkscape:object-nodes="false"
     inkscape:snap-nodes="false"
     inkscape:snap-bbox="true"
     inkscape:bbox-paths="true"
     inkscape:bbox-nodes="true"
     inkscape:zoom="2.0938813"
     inkscape:cx="49.190946"
     inkscape:cy="156.6469"
     inkscape:window-width="1920"
     inkscape:window-height="1016"
     inkscape:window-x="0"
     inkscape:window-y="646"
     inkscape:window-maximized="1"
     inkscape:current-layer="svg1176" />
  <defs
     id="defs1173" />
  <path
     style="fill:#027ac1;stroke:none;stroke-width:0.298683"
     d="m 48.206425,120.90816 c -11.169822,-3.52123 -22.2316,-6.97583 -32.834866,-12.04191 -2.63724,-1.26002 -5.198958,-2.66201 -7.7609703,-4.06698 -1.1313133,-0.62015 -2.2832225,-1.39779 -3.581993,-0.76958 -4.81923581,2.33086 -9.3900894,9.04728 -12.484293,13.29208 -14.5420027,19.94991 -15.2086317,44.92256 -1.4438692,65.45167 2.9965721,4.46924 6.5413297,8.4627 10.3461806,12.25233 1.4951771,1.48924 3.3118391,3.73701 5.3729838,4.4265 2.9769249,0.99552 8.9009311,-3.65722 11.6414451,-4.88946 9.633464,-4.33056 20.262401,-9.14799 30.745382,-10.89277 v 4.483 c -9.395843,1.73372 -19.11706,5.79173 -27.760386,9.78248 -2.09517,0.96743 -7.900373,2.57264 -8.355878,5.18653 -0.509842,2.9247 6.60219,6.20057 8.654371,7.44445 7.520682,4.5577 15.450309,8.43191 23.581418,11.77144 2.954837,1.2134 6.912337,3.45041 10.148955,3.17336 2.619328,9.4364 9.40958,18.79449 15.820738,26.00135 27.528462,30.9443 75.692157,39.3269 111.041287,16.90148 9.9418,-6.30697 18.40335,-14.99711 24.63899,-24.97087 2.02382,-3.23701 3.84944,-6.65634 5.3688,-10.16145 0.76505,-1.7645 1.26086,-4.36134 2.72947,-5.68383 2.81425,-2.53349 8.80929,-3.37688 12.33607,-4.77827 8.23229,-3.27109 16.2837,-7.14768 23.8799,-11.71375 2.59157,-1.558 8.80064,-4.23225 9.93942,-7.16323 0.59938,-1.54335 -1.40832,-2.45847 -2.47754,-3.00988 -3.30916,-1.70682 -6.72667,-3.20384 -10.14836,-4.66739 -11.87668,-5.07953 -24.41871,-8.78936 -37.01387,-11.5984 -2.97305,-0.66289 -5.96102,-1.27855 -8.95496,-1.83863 -1.12654,-0.21069 -2.63396,-0.69605 -3.58408,0.20622 -2.13933,2.03199 -2.84767,7.72479 -3.8981,10.49797 -2.62201,6.92055 -6.03564,13.64563 -10.26478,19.72517 -4.6318,6.65813 -10.08418,12.76129 -16.58041,17.65104 -1.38086,1.03944 -7.05234,3.66858 -6.8404,5.62525 0.21433,1.9776 5.01568,0.7648 6.2434,0.633 6.57384,-0.70532 13.24709,-1.5296 19.70093,-2.98867 -15.75507,25.18516 -56.15002,22.565 -71.04274,-1.79319 3.84527,2.14616 8.21261,3.55651 12.53697,4.3485 1.46472,0.26809 3.61542,0.87 4.90821,-0.16706 2.03457,-1.63241 1.06176,-6.93609 1.06176,-9.26216 V 200.40655 183.9689 c 0,-1.83742 0.52745,-4.89004 -0.86534,-6.3479 -1.45549,-1.52363 -5.30613,-0.88076 -7.19413,-0.69158 -5.55685,0.55679 -11.42743,0.76181 -17.01444,0.7633 5.9e-4,-1.15183 -0.29671,-2.98507 0.59968,-3.88256 0.97938,-0.98088 3.47842,-0.71729 4.7733,-0.82488 4.56107,-0.37896 9.18212,-0.0831 13.73096,-0.53886 1.54115,-0.15421 3.94555,0.29289 5.12284,-0.93036 1.64562,-1.71012 0.84713,-5.9851 0.84713,-8.16891 v -22.1161 c 0,-2.23372 0.88147,-7.04577 -1.07459,-8.63334 -1.56115,-1.2672 -4.80703,-0.59326 -6.68638,-0.64256 -5.767,-0.15153 -11.54475,-0.86073 -17.31294,-0.88555 v -4.48298 c 5.97147,0.0989 11.9322,0.8936 17.90993,0.8966 1.68801,8.9e-4 4.96315,0.61566 6.31685,-0.60042 1.13936,-1.02362 0.84653,-3.1109 0.84713,-4.48031 V 111.04558 64.721333 c -9.48987,0.27376 -16.90787,4.424712 -25.07391,8.667117 0,-8.054741 -2.03338,-19.126536 4.20197,-25.380907 4.35928,-4.37271 9.46242,-4.206839 15.20046,-4.206839 2.01994,0 4.65957,0.431263 6.55265,-0.392711 2.21188,-0.962647 2.39515,-3.172464 2.40172,-5.285746 0.0149,-4.682037 6e-4,-9.364671 6e-4,-14.046708 0,-1.933813 0.41431,-4.483829 -0.52865,-6.248961 -1.22683,-2.297384 -3.80257,-2.118901 -6.03833,-2.119289 H 114.17468 45.519944 27.013016 c -2.396058,1.19e-4 -5.41179,-0.280845 -6.533246,2.399925 -0.754914,1.803985 -0.332235,4.348261 -0.332235,6.267192 v 13.448975 c 0.0011,2.225656 -0.01164,4.607619 2.395459,5.612705 1.750387,0.730729 4.105254,0.364618 5.962509,0.364618 4.927618,0 9.891364,-0.417816 14.018401,2.806352 6.909059,5.397821 5.682521,13.898769 5.682521,21.70067 0,2.776466 0.546852,6.214921 -0.124762,8.914877 -0.590735,2.375089 -5.92342,3.449812 -7.934703,4.335352 -7.657088,3.370612 -15.018972,7.206858 -22.08892,11.689254 -1.935467,1.227137 -8.1830386,4.226557 -7.740669,7.015281 0.417004,2.63032 6.249968,4.34192 8.337666,5.33207 6.291759,2.98448 12.802319,5.43996 19.402428,7.64261 2.628582,0.87747 7.287256,1.35894 9.352866,3.22865 1.136988,1.02899 0.7958,3.06367 0.796094,4.44234 M 194.17238,69.50319 c -8.22663,-1.635097 -16.4252,-3.309345 -24.7754,-4.215507 -1.50265,-0.162882 -7.76336,-1.728343 -7.76336,0.942923 0,2.172458 5.03447,4.528121 6.56936,5.709837 5.74282,4.421127 10.64267,9.928034 14.86972,15.79358 5.35566,7.432206 9.43465,15.849167 12.38979,24.507027 0.72774,2.13181 1.51399,8.57984 3.87004,9.35331 3.34169,1.09683 9.68807,-1.55111 13.04828,-2.31383 12.32592,-2.79827 24.47482,-6.60822 36.11836,-11.53413 3.6581,-1.54783 7.20845,-3.33864 10.74477,-5.14499 1.23309,-0.63001 3.36109,-1.64974 2.48978,-3.390324 -1.28684,-2.571452 -5.79894,-4.663512 -8.16007,-6.152167 -7.61859,-4.802477 -15.59596,-8.887379 -23.8799,-12.410712 -2.90649,-1.236111 -11.38893,-2.742694 -11.62027,-6.370332 -0.64655,-10.140229 -2.44262,-26.064414 9.82926,-29.843277 3.67006,-1.130012 7.84694,-0.633596 11.64146,-0.633894 1.85876,0 4.05929,0.274059 5.54312,-1.090862 1.60444,-1.475801 1.32235,-3.806657 1.32235,-5.78306 V 22.880074 c 0,-1.93447 0.33015,-4.301699 -1.08951,-5.848898 -1.4131,-1.539818 -3.57811,-1.323528 -5.47745,-1.323887 h -11.93997 -44.77482 -11.04445 c -1.78682,2.99e-4 -3.84766,-0.228962 -5.28105,1.062947 -1.74383,1.571468 -1.28593,4.296887 -1.28593,6.408705 0,5.570266 -0.58566,11.503357 0.054,17.03507 0.35552,3.074735 3.02977,3.578921 5.61746,3.586393 5.03776,0.01434 10.93042,-0.885241 15.52194,1.628821 8.97705,4.91575 7.46247,15.459149 7.46247,24.073965 M 129.69663,23.178941 v 12.552377 c -14.8366,0 -33.999029,-3.594464 -45.294827,8.388276 -2.648879,2.810237 -4.427036,6.074154 -6.04699,9.543692 C 75.578476,49.368579 73.785691,45.26694 69.698346,41.881086 58.466432,32.576188 41.187231,35.731318 27.610013,35.731318 V 23.178941 H 129.69663 M 238.9472,35.731318 c -12.72709,0 -26.04044,-0.919611 -32.23788,12.851243 h -0.59699 C 199.85759,34.438722 185.90367,35.731318 172.97896,35.731318 V 23.178941 h 48.35682 12.23844 l 4.7733,0.43488 0.59968,3.45038 v 8.667117 M 204.32134,229.99429 c -2.55874,9.21135 -10.39911,18.28882 -17.31294,24.54678 C 154.26875,284.17513 100.78701,277.78358 73.589279,243.74213 64.705059,232.62282 58.658068,219.30565 56.566785,205.1884 54.794597,193.22479 55.668901,180.79315 55.668901,168.72673 V 104.47052 64.721333 c 0,-10.202992 -0.866542,-20.313334 -11.044458,-25.702487 2.721715,-0.786915 6.135641,-0.340409 8.954966,-0.293188 2.8435,0.04782 5.740133,0.656608 8.357968,1.77108 18.073508,7.695205 14.924943,27.903636 14.924943,43.949759 v 94.740553 c 0,11.7039 -1.049523,23.97505 0.730425,35.56507 2.362918,15.38772 10.48567,29.45355 22.253981,39.5636 23.724704,20.38147 60.173804,20.3991 84.176694,0.53318 5.32074,-4.40379 9.94329,-9.7266 13.59363,-15.58976 1.89726,-3.04754 3.15125,-7.96149 6.70429,-9.26485 M 112.38369,38.719979 v 0.298867 c -11.02924,6.273199 -11.04446,17.215585 -11.04446,28.392281 V 91.619278 190.2451 c 0,18.22635 -1.17251,36.11408 11.14774,51.1061 2.61723,3.18472 5.57119,5.96657 8.85169,8.45822 17.40218,13.21795 43.63218,12.85513 60.89377,-0.36223 4.16913,-3.19219 7.81917,-7.07087 10.81431,-11.38351 1.49996,-2.15961 2.50888,-5.65694 5.30463,-6.27619 -2.61337,5.95102 -6.50341,11.50964 -11.05014,16.13877 -25.62493,26.08892 -70.36095,24.94367 -93.632829,-3.88526 -7.194122,-8.91218 -11.877568,-19.71321 -13.346778,-31.08207 -1.239667,-9.59481 -0.474315,-19.62565 -0.474315,-29.28889 V 103.57392 72.790717 c 0,-5.923227 -0.695204,-12.246039 1.269217,-17.931967 2.765293,-8.002738 9.830161,-14.154897 18.133204,-15.749648 4.253921,-0.8168 8.818561,-0.389123 13.133961,-0.389123 m 79.69919,0.597733 c 2.23994,0.954279 4.37182,1.889431 6.26729,3.460869 8.71557,7.22479 6.56816,19.339628 6.56816,29.414405 -5.38073,-1.198753 -3.21482,-9.871549 -3.28915,-14.345575 -0.12657,-7.629454 -3.86527,-13.697931 -9.84479,-18.230834 l 0.29849,-0.298865 m 27.4619,0.597731 v 0.298867 c -10.81819,8.706269 -8.95497,21.0073 -8.95497,33.473006 -4.22435,-0.624331 -2.68648,-7.19311 -2.68648,-10.460315 0,-9.71524 1.12892,-19.404182 11.64145,-23.311558 m -81.49018,24.80589 v 46.324247 11.35691 c 2.9e-4,1.29649 -0.34268,3.428 0.65849,4.44922 0.88803,0.90616 2.67484,0.63091 3.81899,0.63151 3.19513,0.002 6.36698,-0.28034 9.55196,-0.29767 13.98706,-0.076 27.96218,-2.28394 41.78984,-4.18533 -0.91549,-5.59477 -3.07036,-11.24184 -5.2888,-16.43763 C 179.82772,86.051407 161.98226,65.411713 138.0546,64.721333 m 127.7575,39.433277 c -5.40342,1.39452 -10.91909,5.52067 -16.11894,7.74453 -10.42895,4.46028 -21.24446,7.86377 -32.23787,10.61543 -4.06108,1.01644 -8.1344,1.98716 -12.23845,2.81651 -1.68563,0.34071 -3.9578,0.50239 -4.86971,2.20503 -1.48056,2.76361 0.68147,8.83597 0.94385,11.90175 0.77073,9.00035 0.74356,17.92091 -0.38924,26.89795 -0.34776,2.75375 -2.69992,9.20866 -0.26687,11.31119 2.59963,2.24657 9.02303,2.35655 12.34294,3.10073 8.87765,1.99015 17.69978,4.56129 26.2679,7.62109 6.40249,2.28632 12.72411,4.88406 18.80542,7.92831 2.23367,1.11807 5.43089,3.72896 8.05948,2.9815 1.86651,-0.53109 3.4393,-2.34371 4.77597,-3.65962 2.88648,-2.84162 5.60283,-5.78097 8.11619,-8.9603 13.47721,-17.04912 17.16666,-39.75368 7.33111,-59.47436 -3.42676,-6.87362 -7.93706,-13.08914 -13.3578,-18.5297 -1.78801,-1.7947 -4.2354,-5.25586 -7.16398,-4.50004 m -73.1355,23.52167 c -4.30018,0.006 -8.85139,1.25374 -13.13066,1.7657 -8.52603,1.01973 -17.1022,1.73492 -25.67091,2.19248 -3.36408,0.17962 -6.7807,0.33145 -10.14896,0.33174 -1.41668,0 -3.4193,-0.3159 -4.60971,0.63151 -1.46295,1.16408 -1.06176,3.70325 -1.06176,5.34582 v 14.34557 13.74784 c 0,1.64077 -0.44208,4.1913 0.82385,5.47912 1.00296,1.02032 2.65694,0.76569 3.95212,0.81679 3.06768,0.12104 6.19177,0.11955 9.25347,0.33026 8.56423,0.58906 17.13711,1.00628 25.6709,2.05917 4.64912,0.57383 10.26896,2.29739 14.91599,1.90648 3.42349,-0.28811 3.36647,-7.72719 3.68258,-10.29295 1.20593,-9.79116 1.24265,-19.78913 0.1092,-29.58774 -0.30178,-2.60732 -0.11522,-9.07627 -3.78615,-9.07179 m -53.06683,49.45247 c -1.85667,0.86553 -1.55428,3.35448 -1.55518,5.04696 v 14.9433 29.28889 c 0,2.40438 -1.07072,8.3802 0.87819,10.12767 1.07429,0.96325 2.9205,0.55978 4.19629,0.35326 3.56676,-0.57711 7.12397,-1.56665 10.44745,-2.99045 15.83627,-6.78366 27.32102,-21.00401 34.19245,-36.4805 1.52056,-3.4247 2.83694,-6.9041 4.01511,-10.46031 0.42715,-1.2893 1.29549,-3.05979 0.80506,-4.42949 -0.47164,-1.3174 -1.98443,-1.59774 -3.19274,-1.81621 -2.95873,-0.53557 -5.97178,-0.87478 -8.95497,-1.24388 -10.03972,-1.24329 -20.32897,-2.36075 -30.44689,-2.373 -3.02617,-0.003 -7.5553,-1.28542 -10.38477,0.0338 z"
     id="path1387" />
</svg>
